<svg xmlns="http://www.w3.org/2000/svg" version="1.1" xmlns:xlink="http://www.w3.org/1999/xlink" xmlns:svgjs="http://svgjs.dev/svgjs" width="1500" height="1500" viewBox="0 0 1500 1500"><rect width="1500" height="1500" fill="#ffffff"></rect><g transform="matrix(0.6666666666666666,0,0,0.6666666666666666,250.00007343750008,187.66666666666674)"><svg viewBox="0 0 320 360" data-background-color="#ffffff" preserveAspectRatio="xMidYMid meet" height="1687" width="1500" xmlns="http://www.w3.org/2000/svg" xmlns:xlink="http://www.w3.org/1999/xlink"><g id="tight-bounds" transform="matrix(1,0,0,1,0.000023499999997511622,0)"><svg viewBox="0 0 320 360" height="360" width="320"><g><svg></svg></g><g><svg viewBox="0 0 320 360" height="360" width="320"><g><path transform="translate(-74.99272,-51.79039) scale(4.65793,4.65793)" d="M20.6 59.9l0.8 1-0.4-1.3c-0.1-0.6-0.8 0.1-0.4 0.3M21.5 59.3c0.3 0.5 0.6 1 0.6 1.5 0 0.7 0.6 1 1.1 1.2-0.7-0.8-1.1-3-1.7-2.7M59.9 16.9c1.7 0 3.3-0.2 5.1 0.2 4.4 1.1 8.1 3.3 10.6 6.4l7 11.2c0.3 2.8 0.9 5.9 0.8 9.3 0.7 0 0.6-1 1.4-1.2-0.8 2-1.2 4.5-1.4 7.4-0.5-1.6 0-4 0.1-5.3-0.7 1.1-1.1 0.3-1.1-0.2 0.1-0.8-0.3-0.7-0.6-1-1.1-1-1.8-2.1-2.6-3.8 0.5-1.3 0.6-3.2-1-4.2-0.5-0.3-1.1-0.8-1.4-1.6-0.4-1.1-1.1-2.4-0.9-4.1 0.1-0.5-1.5 1.1-2.4 0.4-3.9-2.7-7.8-5.8-12.5-8.4-2.5 0-4.3-0.9-5.2-2-0.8-1-0.2-2.3 1-2.4 0.7 0 1.5-0.2 2.1 0.2 0.1-0.4 0.5-0.9 1-0.9M50 14.6l0.2 0.1c1 0.2 1.5 1.6 2.6 1.1 0 0.7 0.1 1.4-0.1 1.9-0.3 0.8-1.2 0.8-1.9 0.8-6.7-0.4-10.6 2.4-14.7 4.8-1.1 0.7-2.3 1.2-3.2 2.1-4.3 4-9 7.7-10.1 15.1l-0.9 8.2c-0.1 0.9-1.1 1.8-0.9 2.9l0.7 4.9c-0.7-0.7-1.1 0.2-0.9 0.6 0.1 0.3 0.5 1.3 1.1 0.4 0.8 1.5 1.6 4.4 2.7 5.7 3.4 4 7.8 7.6 11.4 11.2 0.9-0.2 1.6-0.2 1.8-0.8 0.3 0.6-0.3 1.2-0.8 1.3 1.6 1 3.4 1.9 5.8 2.1 3.1 0.2 6 0.7 8.7 1.4 1.4-0.4 2.8-0.6 4.3-0.7 0.5 0 0.8-0.8 1.4-1l0.1-1c0.6 0.9 0.5-0.3 0.1-0.9 0.7 0.6 0.9 1.1 1.2 1.5 0-0.3 0.8-1.4 0.8-0.1l0.2-1.3c0.3-0.2 0.4 1.1 0.7 0.2 0.3-0.9 0.9-0.2 1.5-0.5-0.2 0.4-0.1 1.2 0.6 0.7l0.8-0.7c0.5 1.2 1.3 0.7 1.7 0.5 4.4-2.8 8.8-6.1 13-9.4l-0.1 1.3 0.5-1.6c0.5 0.5 0.9 0.1 1.1-0.2 0.6-1 1.4-2 2.7-2.9-1.6 4.3-3.5 7.7-5.9 10.5l-1 1.2c0 0.7-0.2 1.6-1 1.7-0.4 0.1-1.2-0.2-1.8 0.4-0.3 0.4 0.7 1.2-0.1 0.6-0.7-0.5-1.4 0-2.2 0.2-0.6 0.2 0.4 0.8 0.6 1.2 0.2 0.4 0.4 0.8 0.3 1.3l-1.1-1.2c-1.3 0.7-2.1 2-3.2 3-0.5 0.4-0.3 1.1-0.3 1.7-0.7 0-1.5-0.2-1.9 0.2-0.3 0.4-0.2 1-0.2 1.6-1-0.1-1.1-1.6-2-1.3-0.9 0.2-1.9 0.3-2.7 0.8 0.6 1.2-1 0.5-0.8 0.7-1.5-0.9-2.8-1.6-4.4-1-3.4-1.1-7.6-0.6-10.7-0.2 0-0.5 0.1-1-0.1-1.1-0.2 0.5-0.8 0.3-0.7 0.3-1.9-1.3-3.8-2.1-5.8-3.2-1.8 0.2-3.5-0.7-4-1.2-1.4-1.3-3-0.6-4.3-0.9-2.8-0.7-3.8-3.6-4.1-5.6-0.2-1-1-1.4-1.3-1.3-1.3-4.2-3.3-8-4.9-11.9-0.4-1-0.3-2-0.3-3.1 0.5 0.2 1 0.1 0.9-0.6-0.5-3.3-1.7-5.8-3-8.2 0.7-3.4 0.8-7.4 2.4-10.4 1.4-2.7 4-4.1 5.8-6.4 0.6-0.8 0.6-1.9 1.2-2.6 2-2 4-4.1 6.2-5.9 1-0.8 2.2 0 3.7-0.3 0.5-1.8 2.5-3.4 4.4-2.9 0.8 0.2 2.4-1.9 2.9-2.1 0.8-0.3 0.4 0.8 0.4 1.5 1.9-1.5 4.5-2.3 6.9-3.2" fill="#034620" fill-rule="nonzero" stroke="none" stroke-width="1" stroke-linecap="butt" stroke-linejoin="miter" stroke-miterlimit="10" stroke-dasharray="" stroke-dashoffset="0" font-family="none" font-weight="none" font-size="none" text-anchor="none" style="mix-blend-mode: normal" data-fill-palette-color="tertiary"></path></g><g transform="matrix(1,0,0,1,64,155.36738045879545)"><svg viewBox="0 0 192 49.265239082409096" height="49.265239082409096" width="192"><g><svg viewBox="0 0 192 49.265239082409096" height="49.265239082409096" width="192"><g><svg viewBox="0 0 192 49.265239082409096" height="49.265239082409096" width="192"><g transform="matrix(1,0,0,1,0,29.776821280920956)"><svg viewBox="0 0 192 19.488417801488136" height="19.488417801488136" width="192"><g id="textblocktransform"><svg viewBox="0 0 192 19.488417801488136" height="19.488417801488136" width="192" id="textblock"><g><svg viewBox="0 0 192 19.488417801488136" height="19.488417801488136" width="192"><g transform="matrix(1,0,0,1,0,0)"><svg width="192" viewBox="4.675000000000001 -35.55 356.12999999999994 36.15" height="19.488417801488136" data-palette-color="#034620"><path d="M4.7 0.05L4.7 0.05Q4.65-0.45 4.7-0.95L4.7-0.95Q6.4-1.1 7.15-1.28 7.9-1.45 8.08-2 8.25-2.55 8.25-3.85L8.25-3.85 8.25-30.7Q8.25-32.2 8.05-32.85 7.85-33.5 7.13-33.73 6.4-33.95 4.7-34.05L4.7-34.05Q4.65-34.55 4.7-35.05L4.7-35.05Q5.95-35.05 6.83-35.02 7.7-35 8.88-34.98 10.05-34.95 12.1-34.95L12.1-34.95Q14.25-34.95 16.45-34.98 18.65-35 20.55-35 22.45-35 23.7-35.02 24.95-35.05 25.15-35.05L25.15-35.05Q25.45-32.2 26-29L26-29Q25.45-28.95 25-29L25-29Q24.6-30.35 24.15-31.18 23.7-32 23.2-32.45L23.2-32.45Q22.55-33.05 21.58-33.25 20.6-33.45 19.15-33.45L19.15-33.45 12.25-33.45 12.25-18.85 17.5-18.85Q19.25-18.85 20.1-19.05 20.95-19.25 21.3-20.08 21.65-20.9 21.9-22.75L21.9-22.75Q22.45-22.8 22.95-22.75L22.95-22.75Q22.95-22.4 22.9-21.03 22.85-19.65 22.85-17.95L22.85-17.95Q22.85-16.4 22.9-15.03 22.95-13.65 22.95-13.2L22.95-13.2Q22.5-13.15 21.9-13.2L21.9-13.2Q21.7-15.2 21.35-16.03 21-16.85 20.2-17.05 19.4-17.25 17.8-17.25L17.8-17.25 12.25-17.25 12.25-1.55 18.9-1.55Q20.7-1.55 21.98-1.78 23.25-2 23.95-2.7L23.95-2.7Q24.45-3.2 25.03-4.3 25.6-5.4 26.2-6.9L26.2-6.9Q26.65-6.95 27.15-6.9L27.15-6.9Q26.75-4.9 26.48-3.05 26.2-1.2 26.05 0L26.05 0Q24.4 0 22.25 0 20.1 0 17.9-0.03 15.7-0.05 13.9-0.05 12.1-0.05 11.15-0.05L11.15-0.05Q9.45-0.05 8.38-0.03 7.3 0 6.5 0.03 5.7 0.05 4.7 0.05ZM50.95 0.05L50.95 0.05Q50.9-0.45 50.95-0.95L50.95-0.95Q52.55-1.05 53.25-1.28 53.95-1.5 53.95-1.95L53.95-1.95Q53.95-2.35 53.25-3.5L53.25-3.5 45.85-15.75 37.9-3.6Q37.55-3.1 37.35-2.7 37.15-2.3 37.15-2.05L37.15-2.05Q37.15-1.55 37.95-1.33 38.75-1.1 40.45-0.95L40.45-0.95Q40.5-0.45 40.45 0.05L40.45 0.05Q39.95 0.05 38.82 0.03 37.7 0 36.57-0.03 35.45-0.05 34.95-0.05L34.95-0.05Q33.8-0.05 32.6 0 31.4 0.05 30.55 0.05L30.55 0.05Q30.5-0.45 30.55-0.95L30.55-0.95Q32.15-1.1 33.05-1.38 33.95-1.65 34.7-2.48 35.45-3.3 36.6-5L36.6-5 44.85-17.4 37-30.35Q36.05-31.95 35.35-32.7 34.65-33.45 33.8-33.7 32.95-33.95 31.45-34.05L31.45-34.05Q31.4-34.55 31.45-35.05L31.45-35.05Q32.75-35.05 34.32-35 35.9-34.95 37.2-34.95L37.2-34.95Q38.4-34.95 40.15-35 41.9-35.05 43.05-35.05L43.05-35.05Q43.1-34.55 43.05-34.05L43.05-34.05Q41.5-33.95 40.87-33.73 40.25-33.5 40.25-33.05L40.25-33.05Q40.25-32.6 40.9-31.5L40.9-31.5 47.4-20.75 54.35-31.4Q55.05-32.45 55.05-32.95L55.05-32.95Q55.05-33.5 54.3-33.68 53.55-33.85 51.95-34.05L51.95-34.05Q51.9-34.55 51.95-35.05L51.95-35.05Q52.5-35.05 53.57-35.02 54.65-35 55.72-34.98 56.8-34.95 57.3-34.95L57.3-34.95Q58.45-34.95 59.75-35 61.05-35.05 61.7-35.05L61.7-35.05Q61.75-34.55 61.7-34.05L61.7-34.05Q60.2-33.95 59.25-33.65 58.3-33.35 57.5-32.55 56.7-31.75 55.6-30.05L55.6-30.05 48.35-19.2 57.15-4.65Q58.15-3 58.8-2.27 59.45-1.55 60.32-1.33 61.2-1.1 62.7-0.95L62.7-0.95Q62.75-0.45 62.7 0.05L62.7 0.05Q61.35 0.05 59.85 0 58.35-0.05 56.95-0.05L56.95-0.05Q55.8-0.05 53.97 0 52.15 0.05 50.95 0.05ZM78.5-15.6L78.5-15.6Q77.65-15.6 76.95-15.68 76.25-15.75 75.25-16L75.25-16 75.25-4.3Q75.25-3.1 75.32-2.53 75.4-1.95 75.75-1.6L75.75-1.6Q76.15-1.25 76.84-1.15 77.55-1.05 79.25-0.95L79.25-0.95Q79.3-0.45 79.25 0.05L79.25 0.05Q78.45 0.05 77.3 0.03 76.15 0 75.05-0.03 73.95-0.05 73.25-0.05L73.25-0.05Q72.15-0.05 70.45 0 68.75 0.05 67.59 0.05L67.59 0.05Q67.55-0.45 67.59-0.95L67.59-0.95Q69.34-1.1 70.12-1.25 70.9-1.4 71.07-1.98 71.25-2.55 71.25-3.85L71.25-3.85 71.25-30.7Q71.25-32.2 71.05-32.85 70.84-33.5 70.09-33.73 69.34-33.95 67.59-34.05L67.59-34.05Q67.55-34.55 67.59-35.05L67.59-35.05Q68.34-35.05 69.42-35.02 70.5-35 71.55-34.98 72.59-34.95 73.25-34.95L73.25-34.95Q73.95-34.95 75.25-34.98 76.55-35 77.87-35.02 79.2-35.05 79.8-35.05L79.8-35.05Q82.7-35.05 85.17-34.2 87.65-33.35 89.17-31.38 90.7-29.4 90.7-25.95L90.7-25.95Q90.7-22.5 89.09-20.2 87.5-17.9 84.75-16.75 82-15.6 78.5-15.6ZM75.25-33.45L75.25-17.4Q76.05-17.2 76.72-17.15 77.4-17.1 77.84-17.1L77.84-17.1Q82-17.1 84.17-19.4 86.34-21.7 86.34-25.65L86.34-25.65Q86.34-29.35 84.3-31.48 82.25-33.6 78.09-33.6L78.09-33.6Q77.55-33.6 76.75-33.58 75.95-33.55 75.25-33.45L75.25-33.45ZM106.44-16.3L106.44-16.3 105.19-16.4 105.19-4.3Q105.19-2.8 105.39-2.13 105.59-1.45 106.37-1.28 107.14-1.1 108.94-0.95L108.94-0.95Q108.99-0.45 108.94 0.05L108.94 0.05Q108.24 0.05 107.12 0.03 105.99 0 104.92-0.03 103.84-0.05 103.14-0.05L103.14-0.05Q102.49-0.05 101.42-0.03 100.34 0 99.29 0.03 98.24 0.05 97.54 0.05L97.54 0.05Q97.49-0.45 97.54-0.95L97.54-0.95Q99.29-1.1 100.07-1.25 100.84-1.4 101.02-1.98 101.19-2.55 101.19-3.85L101.19-3.85 101.19-30.75Q101.19-32.25 100.99-32.9 100.79-33.55 100.02-33.75 99.24-33.95 97.54-34.05L97.54-34.05Q97.49-34.55 97.54-35.05L97.54-35.05Q98.24-35.05 99.32-35.02 100.39-35 101.47-34.98 102.54-34.95 103.19-34.95L103.19-34.95Q103.84-34.95 105.14-34.98 106.44-35 107.74-35.02 109.04-35.05 109.64-35.05L109.64-35.05Q112.49-35.05 114.94-34.2 117.39-33.35 118.92-31.48 120.44-29.6 120.44-26.45L120.44-26.45Q120.44-22.75 118.24-20.45 116.04-18.15 112.34-17L112.34-17 112.34-16.85Q113.04-16.5 113.67-15.98 114.29-15.45 115.09-14.45L115.09-14.45Q115.69-13.7 116.82-12.05 117.94-10.4 119.22-8.47 120.49-6.55 121.54-4.9L121.54-4.9Q122.69-3.1 123.49-2.33 124.29-1.55 125.24-1.33 126.19-1.1 127.79-0.95L127.79-0.95Q127.84-0.45 127.79 0.05L127.79 0.05Q127.09 0.05 125.99 0.03 124.89 0 123.87-0.03 122.84-0.05 122.29-0.05L122.29-0.05Q121.69-0.05 121.14-0.03 120.59 0 120.04 0L120.04 0Q119.49-0.95 118.44-2.63 117.39-4.3 116.09-6.3 114.79-8.3 113.52-10.23 112.24-12.15 111.24-13.5L111.24-13.5Q110.39-14.7 109.74-15.25 109.09-15.8 108.37-16 107.64-16.2 106.44-16.3ZM105.19-33.45L105.19-17.9Q105.84-17.8 106.34-17.78 106.84-17.75 107.29-17.75L107.29-17.75Q111.29-17.75 113.72-19.73 116.14-21.7 116.14-25.9L116.14-25.9Q116.14-29.65 114.09-31.63 112.04-33.6 108.04-33.6L108.04-33.6Q106.79-33.6 105.19-33.45L105.19-33.45ZM131.54 0.05L131.54 0.05Q131.49-0.45 131.54-0.95L131.54-0.95Q133.24-1.1 133.99-1.28 134.74-1.45 134.91-2 135.09-2.55 135.09-3.85L135.09-3.85 135.09-30.7Q135.09-32.2 134.89-32.85 134.69-33.5 133.97-33.73 133.24-33.95 131.54-34.05L131.54-34.05Q131.49-34.55 131.54-35.05L131.54-35.05Q132.79-35.05 133.66-35.02 134.54-35 135.72-34.98 136.89-34.95 138.94-34.95L138.94-34.95Q141.09-34.95 143.29-34.98 145.49-35 147.39-35 149.29-35 150.54-35.02 151.79-35.05 151.99-35.05L151.99-35.05Q152.29-32.2 152.84-29L152.84-29Q152.29-28.95 151.84-29L151.84-29Q151.44-30.35 150.99-31.18 150.54-32 150.04-32.45L150.04-32.45Q149.39-33.05 148.42-33.25 147.44-33.45 145.99-33.45L145.99-33.45 139.09-33.45 139.09-18.85 144.34-18.85Q146.09-18.85 146.94-19.05 147.79-19.25 148.14-20.08 148.49-20.9 148.74-22.75L148.74-22.75Q149.29-22.8 149.79-22.75L149.79-22.75Q149.79-22.4 149.74-21.03 149.69-19.65 149.69-17.95L149.69-17.95Q149.69-16.4 149.74-15.03 149.79-13.65 149.79-13.2L149.79-13.2Q149.34-13.15 148.74-13.2L148.74-13.2Q148.54-15.2 148.19-16.03 147.84-16.85 147.04-17.05 146.24-17.25 144.64-17.25L144.64-17.25 139.09-17.25 139.09-1.55 145.74-1.55Q147.54-1.55 148.81-1.78 150.09-2 150.79-2.7L150.79-2.7Q151.29-3.2 151.87-4.3 152.44-5.4 153.04-6.9L153.04-6.9Q153.49-6.95 153.99-6.9L153.99-6.9Q153.59-4.9 153.31-3.05 153.04-1.2 152.89 0L152.89 0Q151.24 0 149.09 0 146.94 0 144.74-0.03 142.54-0.05 140.74-0.05 138.94-0.05 137.99-0.05L137.99-0.05Q136.29-0.05 135.22-0.03 134.14 0 133.34 0.03 132.54 0.05 131.54 0.05ZM161.49-0.15L161.49-0.15Q161.44-1.75 161.41-3.68 161.39-5.6 161.24-7.7L161.24-7.7Q161.49-7.75 161.71-7.75 161.94-7.75 162.19-7.75L162.19-7.75Q162.74-4.35 165.01-2.58 167.29-0.8 170.24-0.8L170.24-0.8Q173.34-0.8 174.99-2.6 176.64-4.4 176.64-7.25L176.64-7.25Q176.64-9.5 175.69-11.08 174.74-12.65 173.06-13.93 171.39-15.2 169.29-16.5L169.29-16.5Q167.34-17.75 165.51-19.13 163.69-20.5 162.54-22.3 161.39-24.1 161.39-26.65L161.39-26.65Q161.39-29.3 162.71-31.3 164.04-33.3 166.36-34.43 168.69-35.55 171.64-35.55L171.64-35.55Q172.54-35.55 173.26-35.45 173.99-35.35 174.94-35.25L174.94-35.25Q175.89-35.15 176.49-35.1 177.09-35.05 177.59-35.05L177.59-35.05Q177.69-35.05 177.94-35.05 178.19-35.05 178.54-35.1L178.54-35.1 178.94-28Q178.64-27.95 178.41-27.93 178.19-27.9 177.94-27.9L177.94-27.9Q177.69-29.5 177.06-30.75 176.44-32 175.64-32.7L175.64-32.7Q174.79-33.45 173.54-33.8 172.29-34.15 171.09-34.15L171.09-34.15Q168.49-34.15 166.76-32.63 165.04-31.1 165.04-28.3L165.04-28.3Q165.04-26.25 165.99-24.78 166.94-23.3 168.54-22.08 170.14-20.85 172.14-19.55L172.14-19.55Q174.09-18.3 175.94-16.82 177.79-15.35 178.96-13.43 180.14-11.5 180.14-8.75L180.14-8.75Q180.14-6.3 179.04-4.17 177.94-2.05 175.69-0.73 173.44 0.6 169.99 0.6L169.99 0.6Q169.24 0.6 168.31 0.5 167.39 0.4 165.59 0.2L165.59 0.2Q164.09 0 163.21-0.08 162.34-0.15 161.49-0.15ZM187.39-0.15L187.39-0.15Q187.34-1.75 187.31-3.68 187.29-5.6 187.14-7.7L187.14-7.7Q187.39-7.75 187.61-7.75 187.84-7.75 188.09-7.75L188.09-7.75Q188.64-4.35 190.91-2.58 193.19-0.8 196.14-0.8L196.14-0.8Q199.24-0.8 200.89-2.6 202.54-4.4 202.54-7.25L202.54-7.25Q202.54-9.5 201.59-11.08 200.64-12.65 198.96-13.93 197.29-15.2 195.19-16.5L195.19-16.5Q193.24-17.75 191.41-19.13 189.59-20.5 188.44-22.3 187.29-24.1 187.29-26.65L187.29-26.65Q187.29-29.3 188.61-31.3 189.94-33.3 192.26-34.43 194.59-35.55 197.54-35.55L197.54-35.55Q198.44-35.55 199.16-35.45 199.89-35.35 200.84-35.25L200.84-35.25Q201.79-35.15 202.39-35.1 202.99-35.05 203.49-35.05L203.49-35.05Q203.59-35.05 203.84-35.05 204.09-35.05 204.44-35.1L204.44-35.1 204.84-28Q204.54-27.95 204.31-27.93 204.09-27.9 203.84-27.9L203.84-27.9Q203.59-29.5 202.96-30.75 202.34-32 201.54-32.7L201.54-32.7Q200.69-33.45 199.44-33.8 198.19-34.15 196.99-34.15L196.99-34.15Q194.39-34.15 192.66-32.63 190.94-31.1 190.94-28.3L190.94-28.3Q190.94-26.25 191.89-24.78 192.84-23.3 194.44-22.08 196.04-20.85 198.04-19.55L198.04-19.55Q199.99-18.3 201.84-16.82 203.69-15.35 204.86-13.43 206.04-11.5 206.04-8.75L206.04-8.75Q206.04-6.3 204.94-4.17 203.84-2.05 201.59-0.73 199.34 0.6 195.89 0.6L195.89 0.6Q195.14 0.6 194.21 0.5 193.29 0.4 191.49 0.2L191.49 0.2Q189.99 0 189.11-0.08 188.24-0.15 187.39-0.15ZM214.13 0.05L214.13 0.05Q214.08-0.45 214.13-0.95L214.13-0.95Q215.88-1.1 216.66-1.25 217.43-1.4 217.61-1.98 217.78-2.55 217.78-3.85L217.78-3.85 217.78-30.7Q217.78-32.2 217.58-32.85 217.38-33.5 216.66-33.73 215.93-33.95 214.23-34.05L214.23-34.05Q214.18-34.55 214.23-35.05L214.23-35.05Q215.43-35.05 216.16-35.02 216.88-35 217.98-34.98 219.08-34.95 221.28-34.95L221.28-34.95Q223.33-34.95 225.78-34.98 228.23-35 230.46-35 232.68-35 234.13-35.02 235.58-35.05 235.63-35.05L235.63-35.05Q235.83-33.65 236.03-32.15 236.23-30.65 236.53-29L236.53-29Q235.98-28.95 235.53-29L235.53-29Q235.03-30.4 234.58-31.15 234.13-31.9 233.53-32.4L233.53-32.4Q232.28-33.45 229.38-33.45L229.38-33.45 221.78-33.45 221.78-18.35 227.53-18.35Q229.28-18.35 230.13-18.55 230.98-18.75 231.33-19.58 231.68-20.4 231.93-22.25L231.93-22.25Q232.48-22.3 232.98-22.25L232.98-22.25Q232.98-21.9 232.93-20.53 232.88-19.15 232.88-17.45L232.88-17.45Q232.88-15.9 232.93-14.43 232.98-12.95 232.98-12.5L232.98-12.5Q232.53-12.45 231.93-12.5L231.93-12.5Q231.73-14.6 231.38-15.48 231.03-16.35 230.23-16.55 229.43-16.75 227.83-16.75L227.83-16.75 221.78-16.75 221.78-4.3Q221.78-3.2 221.86-2.58 221.93-1.95 222.28-1.6L222.28-1.6Q222.63-1.25 223.38-1.15 224.13-1.05 225.68-0.95L225.68-0.95Q225.73-0.45 225.68 0.05L225.68 0.05Q224.93 0.05 223.81 0.03 222.68 0 221.56-0.03 220.43-0.05 219.73-0.05L219.73-0.05Q218.63-0.05 216.96 0 215.28 0.05 214.13 0.05ZM243.83 0.05L243.83 0.05Q243.78-0.45 243.83-0.95L243.83-0.95Q245.53-1.1 246.28-1.28 247.03-1.45 247.21-2 247.38-2.55 247.38-3.85L247.38-3.85 247.38-30.7Q247.38-32.2 247.18-32.85 246.98-33.5 246.26-33.73 245.53-33.95 243.83-34.05L243.83-34.05Q243.78-34.55 243.83-35.05L243.83-35.05Q244.98-35.05 246.68-35 248.38-34.95 249.38-34.95L249.38-34.95Q250.03-34.95 251.08-34.98 252.13-35 253.21-35.02 254.28-35.05 254.98-35.05L254.98-35.05Q255.03-34.55 254.98-34.05L254.98-34.05Q253.23-33.9 252.48-33.75 251.73-33.6 251.56-33.05 251.38-32.5 251.38-31.15L251.38-31.15 251.38-4.5Q251.38-3.25 251.38-2.53 251.38-1.8 251.43-1.55L251.43-1.55 258.73-1.55Q260.48-1.55 261.58-1.8 262.68-2.05 263.33-2.8L263.33-2.8Q263.88-3.4 264.5-4.58 265.13-5.75 265.63-7.45L265.63-7.45Q266.08-7.5 266.53-7.45L266.53-7.45Q266.13-5.2 265.81-3.2 265.48-1.2 265.28 0L265.28 0Q262.93 0 260.16-0.03 257.38-0.05 254.61-0.05 251.83-0.05 249.48-0.05L249.48-0.05Q248.78-0.05 247.73-0.03 246.68 0 245.63 0.03 244.58 0.05 243.83 0.05ZM306.18-17.75L306.18-17.75Q306.18-12.35 303.93-8.22 301.68-4.1 297.58-1.75 293.48 0.6 287.88 0.6L287.88 0.6Q282.33 0.6 278.33-1.7 274.33-4 272.18-8.03 270.03-12.05 270.03-17.2L270.03-17.2Q270.03-22.5 272.28-26.65 274.53-30.8 278.65-33.18 282.78-35.55 288.38-35.55L288.38-35.55Q293.88-35.55 297.85-33.27 301.83-31 304-26.98 306.18-22.95 306.18-17.75ZM301.73-17.25L301.73-17.25Q301.73-20.4 300.98-23.4 300.23-26.4 298.63-28.8 297.03-31.2 294.43-32.63 291.83-34.05 288.13-34.05L288.13-34.05Q284.43-34.05 281.83-32.63 279.23-31.2 277.63-28.8 276.03-26.4 275.28-23.48 274.53-20.55 274.53-17.55L274.53-17.55Q274.53-14.55 275.28-11.6 276.03-8.65 277.68-6.2 279.33-3.75 281.98-2.3 284.63-0.85 288.38-0.85L288.38-0.85Q292.08-0.85 294.65-2.25 297.23-3.65 298.78-5.98 300.33-8.3 301.03-11.25 301.73-14.2 301.73-17.25ZM342.18 0.35L342.18 0.35 334.57-21.55 325.53-0.05Q325.13 0.05 324.53 0.13 323.93 0.2 323.53 0.25L323.53 0.25 312.93-30.3Q312.32-32.05 311.9-32.8 311.48-33.55 310.73-33.75 309.98-33.95 308.43-34.05L308.43-34.05Q308.38-34.55 308.43-35.05L308.43-35.05Q309.63-35.05 311.13-35 312.63-34.95 313.88-34.95L313.88-34.95Q314.98-34.95 316.63-35 318.28-35.05 319.38-35.05L319.38-35.05Q319.43-34.55 319.38-34.05L319.38-34.05Q317.68-33.9 317.03-33.75 316.38-33.6 316.38-32.9L316.38-32.9Q316.38-32.35 316.78-31.3L316.78-31.3 325.73-4.95 333.78-23.9 331.57-30.25Q330.98-32.05 330.57-32.8 330.18-33.55 329.53-33.75 328.88-33.95 327.43-34.05L327.43-34.05Q327.38-34.55 327.43-35.05L327.43-35.05Q328.68-35.05 330.1-35 331.53-34.95 332.78-34.95L332.78-34.95Q333.93-34.95 335.63-35 337.32-35.05 338.53-35.05L338.53-35.05Q338.57-34.55 338.53-34.05L338.53-34.05Q336.53-33.9 335.78-33.73 335.03-33.55 335.03-32.85L335.03-32.85Q335.03-32.35 335.38-31.3L335.38-31.3 344.32-4.85 353.93-30.75Q354.18-31.45 354.35-31.93 354.53-32.4 354.53-32.75L354.53-32.75Q354.53-33.45 353.8-33.68 353.08-33.9 351.33-34.05L351.33-34.05Q351.28-34.55 351.33-35.05L351.33-35.05Q351.83-35.05 352.83-35.02 353.83-35 354.83-34.98 355.83-34.95 356.33-34.95L356.33-34.95Q357.48-34.95 358.58-35 359.68-35.05 360.78-35.05L360.78-35.05Q360.83-34.55 360.78-34.05L360.78-34.05Q359.23-33.95 358.4-33.7 357.58-33.45 357.03-32.6 356.48-31.75 355.73-29.85L355.73-29.85 344.07 0.05Q343.73 0.15 343.13 0.23 342.53 0.3 342.18 0.35Z" opacity="1" transform="matrix(1,0,0,1,0,0)" fill="#034620" class="wordmark-text-0" data-fill-palette-color="primary" id="text-0"></path></svg></g></svg></g></svg></g></svg></g><g transform="matrix(1,0,0,1,63.033604520187545,0)"><svg viewBox="0 0 65.93279095962491 26.932993401656603" height="26.932993401656603" width="65.93279095962491"><g><svg xmlns="http://www.w3.org/2000/svg" xmlns:xlink="http://www.w3.org/1999/xlink" version="1.1" x="0" y="0" viewBox="5.249990658965105 41.583 89.287018669172 36.473" enable-background="new 0 0 100 100" xml:space="preserve" height="26.932993401656603" width="65.93279095962491" class="icon-icon-0" data-fill-palette-color="accent" id="icon-0"><path fill="#f2dfcf" d="M92.922 68.476v-13.85c0-0.891-0.722-1.614-1.614-1.614H70.73L59.774 42.056c-0.303-0.303-0.713-0.473-1.141-0.473H46.665c-0.891 0-1.614 0.722-1.614 1.614v0.134h-0.47c-2.929 0-5.311 2.383-5.311 5.311v4.37H8.477c-0.891 0-1.614 0.722-1.614 1.614v14.119H6.858c-0.891 0.003-1.611 0.728-1.608 1.619 0.003 0.89 0.725 1.608 1.614 1.608 0.002 0 0.004 0 0.006 0l1.58-0.006c0.01 0 0.018 0.006 0.028 0.006 0.01 0 0.019-0.006 0.029-0.006l9.26-0.033c0.945 3.515 4.128 6.123 7.938 6.123 3.826 0 7.022-2.63 7.952-6.169l33.787-0.105c0.892 3.592 4.12 6.274 7.984 6.274 3.883 0 7.127-2.705 8-6.324l9.5-0.03c0.891-0.003 1.612-0.727 1.609-1.618C94.532 69.196 93.81 68.476 92.922 68.476zM89.694 58.526h-3.497c-0.891 0-1.614 0.722-1.614 1.614s0.722 1.614 1.614 1.614h3.497v6.733l-6.149 0.019c-0.629-3.929-4.015-6.95-8.119-6.95-4.121 0-7.516 3.047-8.124 7.001l-19.023 0.059V56.24h41.416V58.526zM57.965 44.811l8.202 8.202H48.279v-8.202H57.965zM42.497 48.642c0-1.149 0.935-2.084 2.084-2.084h0.47v6.454h-2.554V48.642zM17.564 68.707l-7.473 0.026v-6.98h3.765c0.891 0 1.614-0.722 1.614-1.614s-0.722-1.614-1.614-1.614h-3.765V56.24h34.961v12.386l-11.213 0.035c-0.564-4.004-3.978-7.105-8.135-7.105C21.53 61.556 18.108 64.681 17.564 68.707zM25.703 74.83c-2.77 0-5.024-2.253-5.024-5.024 0-2.77 2.253-5.024 5.024-5.024s5.024 2.253 5.024 5.024C30.727 72.576 28.474 74.83 25.703 74.83zM75.426 74.83c-2.77 0-5.024-2.253-5.024-5.024 0-2.77 2.253-5.024 5.024-5.024 2.77 0 5.024 2.253 5.024 5.024C80.449 72.576 78.196 74.83 75.426 74.83z" data-fill-palette-color="accent"></path></svg></g></svg></g><g></g></svg></g></svg></g></svg></g></svg></g><defs></defs></svg><rect width="320" height="360" fill="none" stroke="none" visibility="hidden"></rect></g></svg></g></svg>